<svg width="41" height="31" viewBox="0 0 41 31" fill="none" xmlns="http://www.w3.org/2000/svg">
<path d="M38.4299 1.61177C38.7826 2.22325 39.3728 3.62883 39.7415 4.73531C40.3536 6.57266 40.4189 7.03165 40.4949 10.0294C40.5706 13.013 40.529 13.5046 40.0382 15.4294C39.5299 17.423 38.2583 20.3589 37.7038 20.819C37.53 20.9633 37.0203 20.7362 36.0371 20.0766C35.2581 19.554 34.6207 19.0942 34.6207 19.0548C34.6207 19.0154 34.943 18.2789 35.3369 17.4181C36.4328 15.0233 36.8193 13.2368 36.8208 10.5588C36.8224 7.94907 36.4715 6.29741 35.4508 4.10829C34.8265 2.76927 34.8216 2.73315 35.2208 2.41417C35.4451 2.23491 36.0549 1.73088 36.5759 1.29412C37.0969 0.857356 37.5829 0.5 37.6559 0.5C37.7289 0.5 38.0772 1.0003 38.4299 1.61177ZM4.38315 1.65571L5.59275 2.796L5.05092 4.12947C3.15069 8.80596 3.23955 13.6716 5.29923 17.7259C6.14282 19.3864 6.23361 19.1682 4.17938 20.417C3.30696 20.9474 3.00387 21.0401 2.77172 20.8474C2.34534 20.4935 1.00238 17.2738 0.485748 15.3667C-0.160024 12.9829 -0.162198 8.29159 0.480948 5.83362C1.02761 3.74558 2.50005 0.496733 2.89475 0.507682C3.0479 0.511684 3.71787 1.02855 4.38315 1.65571ZM32.8877 5.31168C33.605 6.70291 33.8765 8.11728 33.8744 10.4529C33.872 13.1216 33.5992 14.3373 32.4538 16.784C31.5453 18.7247 28.733 21.5466 26.6791 22.5782C25.0857 23.3786 23.2044 24.0059 22.3975 24.0059C21.9064 24.0059 21.8993 23.9756 21.9595 22.1529L22.0206 20.3L23.0203 20.0532C24.5829 19.6675 25.8437 18.9435 27.0171 17.7579C29.4527 15.2973 30.2829 13.1863 30.1236 9.85893C30.0696 8.72974 29.9572 7.64946 29.8739 7.45829C29.7606 7.19848 30.0333 6.87372 30.9539 6.17213C32.626 4.89774 32.6652 4.88028 32.8877 5.31168ZM9.29233 5.90084C9.97882 6.41923 10.5746 6.87752 10.6164 6.91925C10.6581 6.96095 10.61 7.8043 10.51 8.79326C10.2679 11.1824 10.5352 12.9696 11.4114 14.8184C12.6205 17.3695 14.8939 19.2806 17.7169 20.119L18.7383 20.4223V22.2141C18.7383 24.2528 18.7894 24.2118 16.8815 23.7039C14.0879 22.9602 10.8929 20.8617 9.34609 18.7545C8.27117 17.2901 7.13818 14.8111 6.85861 13.3118C6.52307 11.5123 6.73324 8.11438 7.28759 6.37645C7.53835 5.59027 7.81117 4.94956 7.89384 4.95267C7.97652 4.95587 8.60583 5.38245 9.29233 5.90084ZM34.465 23.2241L35.8975 24.5404L34.3964 26.0202L32.8953 27.5L32.1499 26.6529C31.7399 26.1871 31.1266 25.4574 30.7869 25.0315L30.1693 24.2572L31.5185 23.0727C32.2605 22.4212 32.9047 21.8926 32.95 21.898C32.9953 21.9036 33.6771 22.5002 34.465 23.2241ZM9.29569 23.0446L10.5472 24.1814L9.19625 25.7878C8.45321 26.6713 7.79197 27.3941 7.72683 27.3941C7.4868 27.3941 4.92624 24.6791 5.00152 24.5044C5.13876 24.1859 7.65157 21.8879 7.85155 21.898C7.95748 21.9036 8.60734 22.4193 9.29569 23.0446ZM28.1668 26.5826C28.4757 27.0872 28.9191 27.7696 29.1521 28.099C29.385 28.4285 29.5434 28.7286 29.504 28.7661C29.4646 28.8035 28.813 29.0859 28.056 29.3936C26.2524 30.1267 23.7341 30.7824 22.722 30.7824H21.9148V29.0041V27.2258L23.2606 26.9915C24.4202 26.7895 25.9627 26.3326 27.2482 25.8102C27.5157 25.7015 27.7458 25.8949 28.1668 26.5826ZM13.6743 25.9094C14.0612 26.1357 16.7718 26.8713 17.9442 27.0682L18.7383 27.2016V29.0212V30.8409L17.3666 30.7003C15.9202 30.5521 13.7952 29.9664 12.1293 29.2566L11.132 28.8318L12.1887 27.2659C12.7698 26.4047 13.2662 25.7029 13.2918 25.7064C13.3174 25.7096 13.4895 25.8013 13.6743 25.9094Z" fill="#FFC948"/>
</svg>
